G04*
G04 #@! TF.GenerationSoftware,Altium Limited,Altium Designer,18.0.7 (293)*
G04*
G04 Layer_Physical_Order=2*
G04 Layer_Color=16711680*
%FSLAX24Y24*%
%MOIN*%
G70*
G01*
G75*
%ADD49C,0.0200*%
%ADD50R,0.0669X0.0669*%
%ADD51C,0.0669*%
%ADD52C,0.0591*%
%ADD53R,0.0591X0.0591*%
%ADD54C,0.1181*%
%ADD55O,0.0787X0.0591*%
%ADD56R,0.0787X0.0591*%
%ADD57R,0.0669X0.0669*%
%ADD58C,0.1575*%
%ADD59R,0.0591X0.0787*%
%ADD60O,0.0591X0.0787*%
%ADD61C,0.2362*%
%ADD62C,0.1969*%
%ADD63C,0.1969*%
%ADD64O,0.1969X0.1969*%
%ADD65C,0.0500*%
G36*
X34100Y28650D02*
X34100Y1100D01*
X33200Y200D01*
X1100D01*
X155Y1145D01*
X155Y28655D01*
X750Y29250D01*
X33500Y29250D01*
X34100Y28650D01*
D02*
G37*
%LPC*%
G36*
X29550Y29100D02*
X29421Y29083D01*
X29300Y29033D01*
X29197Y28953D01*
X29117Y28850D01*
X29095Y28796D01*
X29045Y28806D01*
Y29095D01*
X28055D01*
Y28105D01*
X28247D01*
Y26570D01*
X27331Y25653D01*
X27285Y25672D01*
Y26585D01*
X27100D01*
X27083Y26632D01*
X27131Y26669D01*
X27217Y26780D01*
X27271Y26910D01*
X27289Y27050D01*
X27271Y27190D01*
X27217Y27320D01*
X27131Y27431D01*
X27020Y27517D01*
X26890Y27571D01*
X26750Y27589D01*
X26610Y27571D01*
X26480Y27517D01*
X26369Y27431D01*
X26283Y27320D01*
X26229Y27190D01*
X26211Y27050D01*
X26229Y26910D01*
X26283Y26780D01*
X26369Y26669D01*
X26417Y26632D01*
X26400Y26585D01*
X26215D01*
Y25515D01*
X27128D01*
X27147Y25469D01*
X26209Y24531D01*
X24598D01*
X24520Y24521D01*
X24447Y24490D01*
X24384Y24442D01*
X24036Y24094D01*
X23988Y24032D01*
X23982Y24017D01*
X23897Y23952D01*
X23817Y23848D01*
X23777Y23751D01*
X23723D01*
X23683Y23848D01*
X23603Y23952D01*
X23500Y24031D01*
X23379Y24081D01*
X23250Y24098D01*
X23121Y24081D01*
X23000Y24031D01*
X22897Y23952D01*
X22817Y23848D01*
X22777Y23751D01*
X22723D01*
X22683Y23848D01*
X22603Y23952D01*
X22500Y24031D01*
X22387Y24078D01*
X22376Y24105D01*
X22373Y24132D01*
X22443Y24223D01*
X22488Y24333D01*
X22504Y24450D01*
X22488Y24567D01*
X22443Y24677D01*
X22371Y24771D01*
X22277Y24843D01*
X22167Y24888D01*
X22050Y24904D01*
X22027Y24901D01*
X21864Y25064D01*
X21801Y25112D01*
X21728Y25142D01*
X21650Y25153D01*
X19885D01*
X19871Y25171D01*
X19777Y25243D01*
X19667Y25288D01*
X19550Y25304D01*
X19433Y25288D01*
X19334Y25248D01*
X19327Y25252D01*
X19302Y25277D01*
X19298Y25284D01*
X19338Y25383D01*
X19354Y25500D01*
X19351Y25523D01*
X19675Y25847D01*
X20665D01*
X20679Y25829D01*
X20773Y25757D01*
X20883Y25712D01*
X21000Y25696D01*
X21117Y25712D01*
X21227Y25757D01*
X21321Y25829D01*
X21393Y25923D01*
X21438Y26033D01*
X21454Y26150D01*
X21438Y26267D01*
X21393Y26377D01*
X21321Y26471D01*
X21227Y26543D01*
X21117Y26588D01*
X21000Y26604D01*
X20883Y26588D01*
X20773Y26543D01*
X20679Y26471D01*
X20665Y26453D01*
X19550D01*
X19550Y26453D01*
X19472Y26442D01*
X19399Y26412D01*
X19336Y26364D01*
X18923Y25951D01*
X18900Y25954D01*
X18783Y25938D01*
X18673Y25893D01*
X18579Y25821D01*
X18507Y25727D01*
X18462Y25617D01*
X18446Y25500D01*
X18462Y25383D01*
X18507Y25273D01*
X18579Y25179D01*
X18673Y25107D01*
X18783Y25062D01*
X18900Y25046D01*
X19017Y25062D01*
X19116Y25102D01*
X19123Y25098D01*
X19148Y25073D01*
X19152Y25066D01*
X19112Y24967D01*
X19096Y24850D01*
X19112Y24733D01*
X19157Y24623D01*
X19229Y24529D01*
X19323Y24457D01*
X19433Y24412D01*
X19550Y24396D01*
X19667Y24412D01*
X19777Y24457D01*
X19871Y24529D01*
X19885Y24547D01*
X21525D01*
X21599Y24473D01*
X21596Y24450D01*
X21612Y24333D01*
X21657Y24223D01*
X21729Y24129D01*
X21823Y24057D01*
X21907Y24022D01*
X21915Y23965D01*
X21897Y23952D01*
X21817Y23848D01*
X21777Y23751D01*
X21723D01*
X21683Y23848D01*
X21603Y23952D01*
X21500Y24031D01*
X21379Y24081D01*
X21250Y24098D01*
X21121Y24081D01*
X21000Y24031D01*
X20897Y23952D01*
X20817Y23848D01*
X20777Y23751D01*
X20723D01*
X20683Y23848D01*
X20603Y23952D01*
X20500Y24031D01*
X20379Y24081D01*
X20250Y24098D01*
X20121Y24081D01*
X20000Y24031D01*
X19897Y23952D01*
X19817Y23848D01*
X19777Y23751D01*
X19723D01*
X19683Y23848D01*
X19603Y23952D01*
X19500Y24031D01*
X19379Y24081D01*
X19250Y24098D01*
X19121Y24081D01*
X19104Y24074D01*
X18664Y24514D01*
X18601Y24562D01*
X18528Y24592D01*
X18450Y24603D01*
X17955D01*
X17955Y24603D01*
X17877Y24592D01*
X17804Y24562D01*
X17741Y24514D01*
X17387Y24160D01*
X17339Y24097D01*
X17309Y24024D01*
X17299Y23946D01*
Y22927D01*
X16723Y22351D01*
X16700Y22354D01*
X16583Y22338D01*
X16473Y22293D01*
X16379Y22221D01*
X16307Y22127D01*
X16262Y22017D01*
X16246Y21900D01*
X16262Y21783D01*
X16307Y21673D01*
X16379Y21579D01*
X16473Y21507D01*
X16537Y21481D01*
X16547Y21431D01*
X15668Y20553D01*
X11985D01*
X11971Y20571D01*
X11877Y20643D01*
X11767Y20688D01*
X11650Y20704D01*
X11533Y20688D01*
X11423Y20643D01*
X11329Y20571D01*
X11257Y20477D01*
X11212Y20367D01*
X11196Y20250D01*
X11212Y20133D01*
X11257Y20023D01*
X11329Y19929D01*
X11423Y19857D01*
X11533Y19812D01*
X11650Y19796D01*
X11767Y19812D01*
X11877Y19857D01*
X11971Y19929D01*
X11985Y19947D01*
X15793D01*
X15871Y19958D01*
X15944Y19988D01*
X16007Y20036D01*
X17668Y21697D01*
X22265D01*
X22279Y21679D01*
X22373Y21607D01*
X22483Y21562D01*
X22600Y21546D01*
X22717Y21562D01*
X22827Y21607D01*
X22921Y21679D01*
X22993Y21773D01*
X23038Y21883D01*
X23054Y22000D01*
X23038Y22117D01*
X22993Y22227D01*
X22921Y22321D01*
X22827Y22393D01*
X22717Y22438D01*
X22600Y22454D01*
X22483Y22438D01*
X22373Y22393D01*
X22279Y22321D01*
X22265Y22303D01*
X21450D01*
X21423Y22344D01*
X21438Y22383D01*
X21454Y22500D01*
X21438Y22617D01*
X21393Y22727D01*
X21321Y22821D01*
X21276Y22855D01*
X21290Y22907D01*
X21379Y22919D01*
X21500Y22969D01*
X21603Y23048D01*
X21683Y23152D01*
X21723Y23249D01*
X21777D01*
X21817Y23152D01*
X21897Y23048D01*
X22000Y22969D01*
X22121Y22919D01*
X22250Y22902D01*
X22379Y22919D01*
X22500Y22969D01*
X22603Y23048D01*
X22683Y23152D01*
X22723Y23249D01*
X22777D01*
X22817Y23152D01*
X22897Y23048D01*
X23000Y22969D01*
X23121Y22919D01*
X23250Y22902D01*
X23379Y22919D01*
X23500Y22969D01*
X23603Y23048D01*
X23683Y23152D01*
X23723Y23249D01*
X23777D01*
X23817Y23152D01*
X23897Y23048D01*
X24000Y22969D01*
X24121Y22919D01*
X24250Y22902D01*
X24379Y22919D01*
X24500Y22969D01*
X24603Y23048D01*
X24683Y23152D01*
X24705Y23205D01*
X24755Y23195D01*
Y22906D01*
X25745D01*
Y23197D01*
X26070D01*
X26149Y23208D01*
X26222Y23238D01*
X26284Y23286D01*
X27569Y24571D01*
X27615Y24552D01*
Y23815D01*
Y22815D01*
Y21815D01*
Y21653D01*
X26583D01*
X26505Y21642D01*
X26432Y21612D01*
X26369Y21564D01*
X24486Y19681D01*
X24438Y19618D01*
X24408Y19545D01*
X24397Y19467D01*
Y18935D01*
X24379Y18921D01*
X24307Y18827D01*
X24262Y18717D01*
X24246Y18600D01*
X24262Y18483D01*
X24307Y18373D01*
X24379Y18279D01*
X24473Y18207D01*
X24583Y18162D01*
X24700Y18146D01*
X24817Y18162D01*
X24927Y18207D01*
X25021Y18279D01*
X25093Y18373D01*
X25138Y18483D01*
X25154Y18600D01*
X25138Y18717D01*
X25093Y18827D01*
X25021Y18921D01*
X25003Y18935D01*
Y19342D01*
X26708Y21047D01*
X27615D01*
Y20815D01*
X28685D01*
Y21000D01*
X28732Y21017D01*
X28769Y20969D01*
X28880Y20883D01*
X29010Y20829D01*
X29150Y20811D01*
X29290Y20829D01*
X29420Y20883D01*
X29531Y20969D01*
X29617Y21080D01*
X29671Y21210D01*
X29689Y21350D01*
X29671Y21490D01*
X29617Y21620D01*
X29531Y21731D01*
X29420Y21817D01*
X29400Y21825D01*
Y21875D01*
X29420Y21883D01*
X29531Y21969D01*
X29617Y22080D01*
X29671Y22210D01*
X29689Y22350D01*
X29671Y22490D01*
X29617Y22620D01*
X29531Y22731D01*
X29420Y22817D01*
X29400Y22825D01*
Y22875D01*
X29420Y22883D01*
X29531Y22969D01*
X29617Y23080D01*
X29671Y23210D01*
X29689Y23350D01*
X29671Y23490D01*
X29617Y23620D01*
X29531Y23731D01*
X29420Y23817D01*
X29400Y23825D01*
Y23875D01*
X29420Y23883D01*
X29531Y23969D01*
X29617Y24080D01*
X29671Y24210D01*
X29689Y24350D01*
X29671Y24490D01*
X29617Y24620D01*
X29531Y24731D01*
X29420Y24817D01*
X29290Y24871D01*
X29150Y24889D01*
X29010Y24871D01*
X28880Y24817D01*
X28769Y24731D01*
X28732Y24683D01*
X28685Y24700D01*
Y24885D01*
X27948D01*
X27929Y24931D01*
X29114Y26116D01*
X29114Y26116D01*
X29162Y26178D01*
X29192Y26251D01*
X29203Y26330D01*
Y27825D01*
X29487Y28109D01*
X29550Y28100D01*
X29679Y28117D01*
X29800Y28167D01*
X29903Y28247D01*
X29983Y28350D01*
X30033Y28471D01*
X30050Y28600D01*
X30033Y28729D01*
X29983Y28850D01*
X29903Y28953D01*
X29800Y29033D01*
X29679Y29083D01*
X29550Y29100D01*
D02*
G37*
G36*
X30650Y28986D02*
Y28700D01*
X30936D01*
X30935Y28703D01*
X30895Y28799D01*
X30832Y28882D01*
X30749Y28945D01*
X30653Y28985D01*
X30650Y28986D01*
D02*
G37*
G36*
X30450D02*
X30447Y28985D01*
X30351Y28945D01*
X30268Y28882D01*
X30205Y28799D01*
X30165Y28703D01*
X30164Y28700D01*
X30450D01*
Y28986D01*
D02*
G37*
G36*
X30936Y28500D02*
X30650D01*
Y28214D01*
X30653Y28215D01*
X30749Y28255D01*
X30832Y28318D01*
X30895Y28401D01*
X30935Y28497D01*
X30936Y28500D01*
D02*
G37*
G36*
X30450D02*
X30164D01*
X30165Y28497D01*
X30205Y28401D01*
X30268Y28318D01*
X30351Y28255D01*
X30447Y28215D01*
X30450Y28214D01*
Y28500D01*
D02*
G37*
G36*
X32694Y29027D02*
Y27850D01*
X33871D01*
X33863Y27951D01*
X33816Y28147D01*
X33739Y28333D01*
X33634Y28505D01*
X33503Y28659D01*
X33349Y28790D01*
X33177Y28895D01*
X32991Y28972D01*
X32795Y29019D01*
X32694Y29027D01*
D02*
G37*
G36*
X32494D02*
X32393Y29019D01*
X32197Y28972D01*
X32010Y28895D01*
X31839Y28790D01*
X31685Y28659D01*
X31554Y28505D01*
X31449Y28333D01*
X31372Y28147D01*
X31325Y27951D01*
X31317Y27850D01*
X32494D01*
Y29027D01*
D02*
G37*
G36*
X1850D02*
Y27850D01*
X3027D01*
X3019Y27951D01*
X2972Y28147D01*
X2895Y28333D01*
X2790Y28505D01*
X2659Y28659D01*
X2505Y28790D01*
X2333Y28895D01*
X2147Y28972D01*
X1951Y29019D01*
X1850Y29027D01*
D02*
G37*
G36*
X1650D02*
X1549Y29019D01*
X1353Y28972D01*
X1167Y28895D01*
X995Y28790D01*
X841Y28659D01*
X710Y28505D01*
X605Y28333D01*
X528Y28147D01*
X481Y27951D01*
X473Y27850D01*
X1650D01*
Y29027D01*
D02*
G37*
G36*
X22866Y27734D02*
Y27150D01*
X23450D01*
X23446Y27185D01*
X23407Y27316D01*
X23343Y27436D01*
X23256Y27541D01*
X23151Y27627D01*
X23031Y27691D01*
X22901Y27731D01*
X22866Y27734D01*
D02*
G37*
G36*
X11516D02*
Y27150D01*
X12100D01*
X12096Y27185D01*
X12057Y27316D01*
X11993Y27436D01*
X11906Y27541D01*
X11801Y27627D01*
X11681Y27691D01*
X11551Y27731D01*
X11516Y27734D01*
D02*
G37*
G36*
X22666D02*
X22630Y27731D01*
X22500Y27691D01*
X22380Y27627D01*
X22275Y27541D01*
X22189Y27436D01*
X22125Y27316D01*
X22085Y27185D01*
X22082Y27150D01*
X22666D01*
Y27734D01*
D02*
G37*
G36*
X11316D02*
X11280Y27731D01*
X11150Y27691D01*
X11030Y27627D01*
X10925Y27541D01*
X10839Y27436D01*
X10775Y27316D01*
X10735Y27185D01*
X10732Y27150D01*
X11316D01*
Y27734D01*
D02*
G37*
G36*
X33871Y27650D02*
X32694D01*
Y26473D01*
X32795Y26481D01*
X32991Y26528D01*
X33177Y26605D01*
X33349Y26710D01*
X33503Y26841D01*
X33634Y26995D01*
X33739Y27167D01*
X33816Y27353D01*
X33863Y27549D01*
X33871Y27650D01*
D02*
G37*
G36*
X32494D02*
X31317D01*
X31325Y27549D01*
X31372Y27353D01*
X31449Y27167D01*
X31554Y26995D01*
X31685Y26841D01*
X31839Y26710D01*
X32010Y26605D01*
X32197Y26528D01*
X32393Y26481D01*
X32494Y26473D01*
Y27650D01*
D02*
G37*
G36*
X3027D02*
X1850D01*
Y26473D01*
X1951Y26481D01*
X2147Y26528D01*
X2333Y26605D01*
X2505Y26710D01*
X2659Y26841D01*
X2790Y26995D01*
X2895Y27167D01*
X2972Y27353D01*
X3019Y27549D01*
X3027Y27650D01*
D02*
G37*
G36*
X1650D02*
X473D01*
X481Y27549D01*
X528Y27353D01*
X605Y27167D01*
X710Y26995D01*
X841Y26841D01*
X995Y26710D01*
X1167Y26605D01*
X1353Y26528D01*
X1549Y26481D01*
X1650Y26473D01*
Y27650D01*
D02*
G37*
G36*
X12100Y26950D02*
X11516D01*
Y26366D01*
X11551Y26369D01*
X11681Y26409D01*
X11801Y26473D01*
X11906Y26559D01*
X11993Y26664D01*
X12057Y26784D01*
X12096Y26915D01*
X12100Y26950D01*
D02*
G37*
G36*
X23450D02*
X22866D01*
Y26366D01*
X22901Y26369D01*
X23031Y26409D01*
X23151Y26473D01*
X23256Y26559D01*
X23343Y26664D01*
X23407Y26784D01*
X23446Y26915D01*
X23450Y26950D01*
D02*
G37*
G36*
X22666D02*
X22082D01*
X22085Y26915D01*
X22125Y26784D01*
X22189Y26664D01*
X22275Y26559D01*
X22380Y26473D01*
X22500Y26409D01*
X22630Y26369D01*
X22666Y26366D01*
Y26950D01*
D02*
G37*
G36*
X11316D02*
X10732D01*
X10735Y26915D01*
X10775Y26784D01*
X10839Y26664D01*
X10925Y26559D01*
X11030Y26473D01*
X11150Y26409D01*
X11280Y26369D01*
X11316Y26366D01*
Y26950D01*
D02*
G37*
G36*
X13384Y27844D02*
X13229Y27829D01*
X13080Y27784D01*
X12943Y27710D01*
X12823Y27612D01*
X12724Y27491D01*
X12650Y27354D01*
X12605Y27205D01*
X12590Y27050D01*
X12605Y26895D01*
X12650Y26746D01*
X12724Y26609D01*
X12823Y26488D01*
X12943Y26390D01*
X13080Y26316D01*
X13229Y26271D01*
X13384Y26256D01*
X13539Y26271D01*
X13688Y26316D01*
X13826Y26390D01*
X13946Y26488D01*
X14045Y26609D01*
X14118Y26746D01*
X14163Y26895D01*
X14179Y27050D01*
X14163Y27205D01*
X14118Y27354D01*
X14045Y27491D01*
X13946Y27612D01*
X13826Y27710D01*
X13688Y27784D01*
X13539Y27829D01*
X13384Y27844D01*
D02*
G37*
G36*
X6334D02*
X6179Y27829D01*
X6030Y27784D01*
X5893Y27710D01*
X5773Y27612D01*
X5674Y27491D01*
X5600Y27354D01*
X5555Y27205D01*
X5540Y27050D01*
X5555Y26895D01*
X5600Y26746D01*
X5674Y26609D01*
X5773Y26488D01*
X5893Y26390D01*
X6030Y26316D01*
X6179Y26271D01*
X6334Y26256D01*
X6489Y26271D01*
X6638Y26316D01*
X6776Y26390D01*
X6896Y26488D01*
X6995Y26609D01*
X7068Y26746D01*
X7113Y26895D01*
X7129Y27050D01*
X7113Y27205D01*
X7068Y27354D01*
X6995Y27491D01*
X6896Y27612D01*
X6776Y27710D01*
X6638Y27784D01*
X6489Y27829D01*
X6334Y27844D01*
D02*
G37*
G36*
X4366D02*
X4211Y27829D01*
X4062Y27784D01*
X3924Y27710D01*
X3804Y27612D01*
X3705Y27491D01*
X3632Y27354D01*
X3587Y27205D01*
X3571Y27050D01*
X3587Y26895D01*
X3632Y26746D01*
X3705Y26609D01*
X3804Y26488D01*
X3924Y26390D01*
X4062Y26316D01*
X4211Y26271D01*
X4366Y26256D01*
X4521Y26271D01*
X4670Y26316D01*
X4807Y26390D01*
X4927Y26488D01*
X5026Y26609D01*
X5100Y26746D01*
X5145Y26895D01*
X5160Y27050D01*
X5145Y27205D01*
X5100Y27354D01*
X5026Y27491D01*
X4927Y27612D01*
X4807Y27710D01*
X4670Y27784D01*
X4521Y27829D01*
X4366Y27844D01*
D02*
G37*
G36*
X15200Y27589D02*
X15060Y27571D01*
X14930Y27517D01*
X14819Y27431D01*
X14733Y27320D01*
X14679Y27190D01*
X14661Y27050D01*
X14679Y26910D01*
X14733Y26780D01*
X14819Y26669D01*
X14867Y26632D01*
X14850Y26585D01*
X14665D01*
Y25515D01*
X15735D01*
Y26585D01*
X15550D01*
X15533Y26632D01*
X15581Y26669D01*
X15667Y26780D01*
X15721Y26910D01*
X15739Y27050D01*
X15721Y27190D01*
X15667Y27320D01*
X15581Y27431D01*
X15470Y27517D01*
X15340Y27571D01*
X15200Y27589D01*
D02*
G37*
G36*
X11050Y25454D02*
X10933Y25438D01*
X10823Y25393D01*
X10729Y25321D01*
X10715Y25303D01*
X10300D01*
X10300Y25303D01*
X10222Y25292D01*
X10149Y25262D01*
X10086Y25214D01*
X9673Y24801D01*
X9650Y24804D01*
X9533Y24788D01*
X9423Y24743D01*
X9329Y24671D01*
X9257Y24577D01*
X9212Y24467D01*
X9196Y24350D01*
X9212Y24233D01*
X9257Y24123D01*
X9329Y24029D01*
X9331Y24028D01*
Y23978D01*
X9297Y23952D01*
X9217Y23848D01*
X9177Y23751D01*
X9123D01*
X9083Y23848D01*
X9003Y23952D01*
X8900Y24031D01*
X8779Y24081D01*
X8650Y24098D01*
X8521Y24081D01*
X8400Y24031D01*
X8297Y23952D01*
X8217Y23848D01*
X8177Y23751D01*
X8123D01*
X8083Y23848D01*
X8003Y23952D01*
X7900Y24031D01*
X7779Y24081D01*
X7650Y24098D01*
X7521Y24081D01*
X7400Y24031D01*
X7366Y24005D01*
X7317Y24018D01*
X7308Y24039D01*
X7211Y24198D01*
X7090Y24340D01*
X6948Y24461D01*
X6789Y24558D01*
X6617Y24630D01*
X6436Y24673D01*
X6250Y24688D01*
X6064Y24673D01*
X5883Y24630D01*
X5711Y24558D01*
X5552Y24461D01*
X5410Y24340D01*
X5289Y24198D01*
X5192Y24039D01*
X5120Y23867D01*
X5077Y23686D01*
X5062Y23500D01*
X5077Y23314D01*
X5120Y23133D01*
X5192Y22961D01*
X5289Y22802D01*
X5410Y22660D01*
X5552Y22539D01*
X5711Y22442D01*
X5883Y22370D01*
X6064Y22327D01*
X6250Y22312D01*
X6436Y22327D01*
X6617Y22370D01*
X6789Y22442D01*
X6948Y22539D01*
X7090Y22660D01*
X7211Y22802D01*
X7308Y22961D01*
X7317Y22982D01*
X7366Y22995D01*
X7400Y22969D01*
X7521Y22919D01*
X7650Y22902D01*
X7779Y22919D01*
X7900Y22969D01*
X8003Y23048D01*
X8083Y23152D01*
X8123Y23249D01*
X8177D01*
X8217Y23152D01*
X8297Y23048D01*
X8400Y22969D01*
X8521Y22919D01*
X8650Y22902D01*
X8779Y22919D01*
X8900Y22969D01*
X9003Y23048D01*
X9083Y23152D01*
X9123Y23249D01*
X9177D01*
X9217Y23152D01*
X9297Y23048D01*
X9400Y22969D01*
X9521Y22919D01*
X9650Y22902D01*
X9779Y22919D01*
X9900Y22969D01*
X10003Y23048D01*
X10083Y23152D01*
X10133Y23272D01*
X10150Y23402D01*
Y23598D01*
X10133Y23728D01*
X10083Y23848D01*
X10003Y23952D01*
X9969Y23978D01*
Y24028D01*
X9971Y24029D01*
X10043Y24123D01*
X10088Y24233D01*
X10104Y24350D01*
X10101Y24373D01*
X10425Y24697D01*
X10715D01*
X10729Y24679D01*
X10823Y24607D01*
X10933Y24562D01*
X11050Y24546D01*
X11167Y24562D01*
X11277Y24607D01*
X11371Y24679D01*
X11443Y24773D01*
X11488Y24883D01*
X11504Y25000D01*
X11488Y25117D01*
X11443Y25227D01*
X11371Y25321D01*
X11277Y25393D01*
X11167Y25438D01*
X11050Y25454D01*
D02*
G37*
G36*
X24734Y27844D02*
X24579Y27829D01*
X24430Y27784D01*
X24293Y27710D01*
X24173Y27612D01*
X24074Y27491D01*
X24000Y27354D01*
X23955Y27205D01*
X23940Y27050D01*
X23955Y26895D01*
X24000Y26746D01*
X24074Y26609D01*
X24173Y26488D01*
X24293Y26390D01*
X24430Y26316D01*
X24432Y26316D01*
Y25385D01*
X24413Y25371D01*
X24341Y25277D01*
X24296Y25167D01*
X24280Y25050D01*
X24296Y24933D01*
X24341Y24823D01*
X24413Y24729D01*
X24507Y24657D01*
X24617Y24612D01*
X24734Y24596D01*
X24852Y24612D01*
X24961Y24657D01*
X25055Y24729D01*
X25127Y24823D01*
X25173Y24933D01*
X25188Y25050D01*
X25173Y25167D01*
X25127Y25277D01*
X25055Y25371D01*
X25037Y25385D01*
Y26316D01*
X25038Y26316D01*
X25176Y26390D01*
X25296Y26488D01*
X25395Y26609D01*
X25468Y26746D01*
X25513Y26895D01*
X25529Y27050D01*
X25513Y27205D01*
X25468Y27354D01*
X25395Y27491D01*
X25296Y27612D01*
X25176Y27710D01*
X25038Y27784D01*
X24889Y27829D01*
X24734Y27844D01*
D02*
G37*
G36*
X32000Y24468D02*
Y23884D01*
X32584D01*
X32581Y23920D01*
X32541Y24050D01*
X32477Y24170D01*
X32391Y24275D01*
X32286Y24361D01*
X32166Y24425D01*
X32035Y24465D01*
X32000Y24468D01*
D02*
G37*
G36*
X31800D02*
X31765Y24465D01*
X31634Y24425D01*
X31514Y24361D01*
X31409Y24275D01*
X31323Y24170D01*
X31259Y24050D01*
X31219Y23920D01*
X31216Y23884D01*
X31800D01*
Y24468D01*
D02*
G37*
G36*
X15650Y24098D02*
X15521Y24081D01*
X15400Y24031D01*
X15297Y23952D01*
X15217Y23848D01*
X15177Y23751D01*
X15123D01*
X15083Y23848D01*
X15003Y23952D01*
X14900Y24031D01*
X14779Y24081D01*
X14650Y24098D01*
X14521Y24081D01*
X14400Y24031D01*
X14297Y23952D01*
X14217Y23848D01*
X14177Y23751D01*
X14123D01*
X14083Y23848D01*
X14003Y23952D01*
X13900Y24031D01*
X13779Y24081D01*
X13650Y24098D01*
X13521Y24081D01*
X13400Y24031D01*
X13297Y23952D01*
X13217Y23848D01*
X13177Y23751D01*
X13123D01*
X13083Y23848D01*
X13003Y23952D01*
X12900Y24031D01*
X12779Y24081D01*
X12650Y24098D01*
X12521Y24081D01*
X12400Y24031D01*
X12297Y23952D01*
X12217Y23848D01*
X12177Y23751D01*
X12123D01*
X12083Y23848D01*
X12003Y23952D01*
X11900Y24031D01*
X11779Y24081D01*
X11650Y24098D01*
X11521Y24081D01*
X11400Y24031D01*
X11297Y23952D01*
X11217Y23848D01*
X11167Y23728D01*
X11150Y23598D01*
Y23402D01*
X11167Y23272D01*
X11217Y23152D01*
X11297Y23048D01*
X11400Y22969D01*
X11521Y22919D01*
X11650Y22902D01*
X11779Y22919D01*
X11900Y22969D01*
X12003Y23048D01*
X12083Y23152D01*
X12123Y23249D01*
X12177D01*
X12217Y23152D01*
X12297Y23048D01*
X12400Y22969D01*
X12521Y22919D01*
X12650Y22902D01*
X12779Y22919D01*
X12900Y22969D01*
X13003Y23048D01*
X13083Y23152D01*
X13123Y23249D01*
X13177D01*
X13217Y23152D01*
X13297Y23048D01*
X13400Y22969D01*
X13521Y22919D01*
X13650Y22902D01*
X13779Y22919D01*
X13900Y22969D01*
X14003Y23048D01*
X14083Y23152D01*
X14123Y23249D01*
X14177D01*
X14217Y23152D01*
X14297Y23048D01*
X14400Y22969D01*
X14521Y22919D01*
X14650Y22902D01*
X14779Y22919D01*
X14900Y22969D01*
X15003Y23048D01*
X15083Y23152D01*
X15123Y23249D01*
X15177D01*
X15217Y23152D01*
X15297Y23048D01*
X15400Y22969D01*
X15521Y22919D01*
X15650Y22902D01*
X15779Y22919D01*
X15900Y22969D01*
X16003Y23048D01*
X16083Y23152D01*
X16105Y23205D01*
X16155Y23195D01*
Y22906D01*
X17145D01*
Y24094D01*
X16155D01*
Y23805D01*
X16105Y23795D01*
X16083Y23848D01*
X16003Y23952D01*
X15900Y24031D01*
X15779Y24081D01*
X15650Y24098D01*
D02*
G37*
G36*
X10750Y23984D02*
Y23600D01*
X11048D01*
X11035Y23702D01*
X10995Y23798D01*
X10932Y23880D01*
X10849Y23944D01*
X10753Y23984D01*
X10750Y23984D01*
D02*
G37*
G36*
X10550D02*
X10547Y23984D01*
X10451Y23944D01*
X10368Y23880D01*
X10305Y23798D01*
X10265Y23702D01*
X10252Y23600D01*
X10550D01*
Y23984D01*
D02*
G37*
G36*
X32584Y23684D02*
X32000D01*
Y23100D01*
X32035Y23104D01*
X32166Y23143D01*
X32286Y23207D01*
X32391Y23294D01*
X32477Y23399D01*
X32541Y23519D01*
X32581Y23649D01*
X32584Y23684D01*
D02*
G37*
G36*
X31800D02*
X31216D01*
X31219Y23649D01*
X31259Y23519D01*
X31323Y23399D01*
X31409Y23294D01*
X31514Y23207D01*
X31634Y23143D01*
X31765Y23104D01*
X31800Y23100D01*
Y23684D01*
D02*
G37*
G36*
X11048Y23400D02*
X10750D01*
Y23016D01*
X10753Y23016D01*
X10849Y23056D01*
X10932Y23120D01*
X10995Y23202D01*
X11035Y23298D01*
X11048Y23400D01*
D02*
G37*
G36*
X10550D02*
X10252D01*
X10265Y23298D01*
X10305Y23202D01*
X10368Y23120D01*
X10451Y23056D01*
X10547Y23016D01*
X10550Y23016D01*
Y23400D01*
D02*
G37*
G36*
X13400Y21804D02*
X13283Y21788D01*
X13173Y21743D01*
X13079Y21671D01*
X13065Y21653D01*
X11985D01*
X11971Y21671D01*
X11877Y21743D01*
X11767Y21788D01*
X11650Y21804D01*
X11533Y21788D01*
X11423Y21743D01*
X11329Y21671D01*
X11257Y21577D01*
X11212Y21467D01*
X11196Y21350D01*
X11212Y21233D01*
X11257Y21123D01*
X11329Y21029D01*
X11423Y20957D01*
X11533Y20912D01*
X11650Y20896D01*
X11767Y20912D01*
X11877Y20957D01*
X11971Y21029D01*
X11985Y21047D01*
X13065D01*
X13079Y21029D01*
X13173Y20957D01*
X13283Y20912D01*
X13400Y20896D01*
X13517Y20912D01*
X13627Y20957D01*
X13721Y21029D01*
X13793Y21123D01*
X13838Y21233D01*
X13854Y21350D01*
X13838Y21467D01*
X13793Y21577D01*
X13721Y21671D01*
X13627Y21743D01*
X13517Y21788D01*
X13400Y21804D01*
D02*
G37*
G36*
X31900Y22610D02*
X31745Y22595D01*
X31596Y22550D01*
X31459Y22476D01*
X31338Y22377D01*
X31240Y22257D01*
X31166Y22120D01*
X31121Y21971D01*
X31106Y21816D01*
X31121Y21661D01*
X31166Y21512D01*
X31240Y21374D01*
X31338Y21254D01*
X31459Y21155D01*
X31596Y21082D01*
X31745Y21037D01*
X31900Y21021D01*
X32055Y21037D01*
X32204Y21082D01*
X32341Y21155D01*
X32462Y21254D01*
X32561Y21374D01*
X32634Y21512D01*
X32679Y21661D01*
X32694Y21816D01*
X32679Y21971D01*
X32634Y22120D01*
X32561Y22257D01*
X32462Y22377D01*
X32341Y22476D01*
X32204Y22550D01*
X32055Y22595D01*
X31900Y22610D01*
D02*
G37*
G36*
X32400Y19750D02*
X32271Y19733D01*
X32150Y19683D01*
X32047Y19603D01*
X31967Y19500D01*
X31927Y19402D01*
X31873D01*
X31833Y19500D01*
X31753Y19603D01*
X31650Y19683D01*
X31529Y19733D01*
X31400Y19750D01*
X31271Y19733D01*
X31150Y19683D01*
X31047Y19603D01*
X30967Y19500D01*
X30927Y19402D01*
X30873D01*
X30833Y19500D01*
X30753Y19603D01*
X30650Y19683D01*
X30529Y19733D01*
X30400Y19750D01*
X30271Y19733D01*
X30150Y19683D01*
X30047Y19603D01*
X29967Y19500D01*
X29927Y19402D01*
X29873D01*
X29833Y19500D01*
X29753Y19603D01*
X29650Y19683D01*
X29529Y19733D01*
X29400Y19750D01*
X29271Y19733D01*
X29150Y19683D01*
X29047Y19603D01*
X28967Y19500D01*
X28917Y19379D01*
X28900Y19250D01*
X28917Y19121D01*
X28967Y19000D01*
X29047Y18897D01*
X29150Y18817D01*
X29271Y18767D01*
X29400Y18750D01*
X29529Y18767D01*
X29650Y18817D01*
X29753Y18897D01*
X29833Y19000D01*
X29873Y19098D01*
X29927D01*
X29967Y19000D01*
X30047Y18897D01*
X30150Y18817D01*
X30271Y18767D01*
X30400Y18750D01*
X30529Y18767D01*
X30650Y18817D01*
X30753Y18897D01*
X30833Y19000D01*
X30873Y19098D01*
X30927D01*
X30967Y19000D01*
X31047Y18897D01*
X31150Y18817D01*
X31271Y18767D01*
X31400Y18750D01*
X31529Y18767D01*
X31650Y18817D01*
X31753Y18897D01*
X31833Y19000D01*
X31873Y19098D01*
X31927D01*
X31967Y19000D01*
X32047Y18897D01*
X32150Y18817D01*
X32271Y18767D01*
X32400Y18750D01*
X32529Y18767D01*
X32650Y18817D01*
X32753Y18897D01*
X32833Y19000D01*
X32883Y19121D01*
X32900Y19250D01*
X32883Y19379D01*
X32833Y19500D01*
X32753Y19603D01*
X32650Y19683D01*
X32529Y19733D01*
X32400Y19750D01*
D02*
G37*
G36*
X33795Y19645D02*
X33500D01*
Y19350D01*
X33795D01*
Y19645D01*
D02*
G37*
G36*
X28500Y19636D02*
Y19350D01*
X28786D01*
X28785Y19353D01*
X28745Y19449D01*
X28682Y19532D01*
X28599Y19595D01*
X28503Y19635D01*
X28500Y19636D01*
D02*
G37*
G36*
X28300D02*
X28297Y19635D01*
X28201Y19595D01*
X28118Y19532D01*
X28055Y19449D01*
X28015Y19353D01*
X28014Y19350D01*
X28300D01*
Y19636D01*
D02*
G37*
G36*
X33300Y19645D02*
X33005D01*
Y19350D01*
X33300D01*
Y19645D01*
D02*
G37*
G36*
X28786Y19150D02*
X28500D01*
Y18864D01*
X28503Y18865D01*
X28599Y18905D01*
X28682Y18968D01*
X28745Y19051D01*
X28785Y19147D01*
X28786Y19150D01*
D02*
G37*
G36*
X28300D02*
X28014D01*
X28015Y19147D01*
X28055Y19051D01*
X28118Y18968D01*
X28201Y18905D01*
X28297Y18865D01*
X28300Y18864D01*
Y19150D01*
D02*
G37*
G36*
X33795D02*
X33500D01*
Y18855D01*
X33795D01*
Y19150D01*
D02*
G37*
G36*
X33300D02*
X33005D01*
Y18855D01*
X33300D01*
Y19150D01*
D02*
G37*
G36*
X27400Y19750D02*
X27271Y19733D01*
X27150Y19683D01*
X27047Y19603D01*
X26967Y19500D01*
X26917Y19379D01*
X26900Y19250D01*
X26917Y19121D01*
X26967Y19000D01*
X27047Y18897D01*
X27150Y18817D01*
X27271Y18767D01*
X27400Y18750D01*
X27529Y18767D01*
X27650Y18817D01*
X27753Y18897D01*
X27833Y19000D01*
X27883Y19121D01*
X27900Y19250D01*
X27883Y19379D01*
X27833Y19500D01*
X27753Y19603D01*
X27650Y19683D01*
X27529Y19733D01*
X27400Y19750D01*
D02*
G37*
G36*
X18750Y20242D02*
X18556Y20223D01*
X18370Y20167D01*
X18199Y20075D01*
X18048Y19952D01*
X17925Y19801D01*
X17833Y19630D01*
X17777Y19444D01*
X17758Y19250D01*
X17777Y19056D01*
X17833Y18870D01*
X17925Y18699D01*
X18048Y18548D01*
X18199Y18425D01*
X18370Y18333D01*
X18556Y18277D01*
X18750Y18258D01*
X18944Y18277D01*
X19130Y18333D01*
X19301Y18425D01*
X19452Y18548D01*
X19575Y18699D01*
X19667Y18870D01*
X19723Y19056D01*
X19742Y19250D01*
X19723Y19444D01*
X19667Y19630D01*
X19575Y19801D01*
X19452Y19952D01*
X19301Y20075D01*
X19130Y20167D01*
X18944Y20223D01*
X18750Y20242D01*
D02*
G37*
G36*
X23550Y21704D02*
X23433Y21688D01*
X23323Y21643D01*
X23229Y21571D01*
X23157Y21477D01*
X23112Y21367D01*
X23096Y21250D01*
X23112Y21133D01*
X23157Y21023D01*
X23229Y20929D01*
X23247Y20915D01*
Y18935D01*
X23229Y18921D01*
X23157Y18827D01*
X23112Y18717D01*
X23096Y18600D01*
X23112Y18483D01*
X23157Y18373D01*
X23229Y18279D01*
X23323Y18207D01*
X23433Y18162D01*
X23550Y18146D01*
X23667Y18162D01*
X23777Y18207D01*
X23871Y18279D01*
X23943Y18373D01*
X23988Y18483D01*
X24004Y18600D01*
X23988Y18717D01*
X23943Y18827D01*
X23871Y18921D01*
X23853Y18935D01*
Y20915D01*
X23871Y20929D01*
X23943Y21023D01*
X23988Y21133D01*
X24004Y21250D01*
X23988Y21367D01*
X23943Y21477D01*
X23871Y21571D01*
X23777Y21643D01*
X23667Y21688D01*
X23550Y21704D01*
D02*
G37*
G36*
X19150Y18148D02*
X19048Y18135D01*
X18952Y18095D01*
X18870Y18032D01*
X18806Y17949D01*
X18794Y17919D01*
X18744Y17929D01*
Y18145D01*
X18350D01*
Y17750D01*
Y17355D01*
X18744D01*
Y17571D01*
X18794Y17581D01*
X18806Y17551D01*
X18870Y17468D01*
X18952Y17405D01*
X19048Y17365D01*
X19150Y17352D01*
Y17750D01*
Y18148D01*
D02*
G37*
G36*
X19350D02*
Y17850D01*
X19734D01*
X19734Y17853D01*
X19694Y17949D01*
X19630Y18032D01*
X19548Y18095D01*
X19452Y18135D01*
X19350Y18148D01*
D02*
G37*
G36*
X18150Y18145D02*
X17756D01*
Y17850D01*
X18150D01*
Y18145D01*
D02*
G37*
G36*
Y17650D02*
X17756D01*
Y17355D01*
X18150D01*
Y17650D01*
D02*
G37*
G36*
X19734D02*
X19350D01*
Y17352D01*
X19452Y17365D01*
X19548Y17405D01*
X19630Y17468D01*
X19694Y17551D01*
X19734Y17647D01*
X19734Y17650D01*
D02*
G37*
G36*
X19348Y17250D02*
X19152D01*
X19022Y17233D01*
X18902Y17183D01*
X18798Y17103D01*
X18775Y17073D01*
X18725D01*
X18702Y17103D01*
X18598Y17183D01*
X18478Y17233D01*
X18348Y17250D01*
X18152D01*
X18022Y17233D01*
X17902Y17183D01*
X17798Y17103D01*
X17719Y17000D01*
X17669Y16879D01*
X17652Y16750D01*
X17669Y16621D01*
X17676Y16604D01*
X17236Y16164D01*
X17188Y16101D01*
X17158Y16028D01*
X17147Y15950D01*
Y11535D01*
X17129Y11521D01*
X17057Y11427D01*
X17012Y11317D01*
X16996Y11200D01*
X17012Y11083D01*
X17057Y10973D01*
X17129Y10879D01*
X17223Y10807D01*
X17333Y10762D01*
X17450Y10746D01*
X17567Y10762D01*
X17677Y10807D01*
X17714Y10835D01*
X17761Y10808D01*
X17753Y10750D01*
X17766Y10647D01*
X17806Y10551D01*
X17870Y10468D01*
X17952Y10405D01*
X18048Y10365D01*
X18150Y10352D01*
Y10750D01*
Y11148D01*
X18048Y11135D01*
X17952Y11095D01*
X17939Y11085D01*
X17892Y11112D01*
X17904Y11200D01*
X17895Y11266D01*
X17941Y11301D01*
X18022Y11267D01*
X18152Y11250D01*
X18348D01*
X18478Y11267D01*
X18598Y11317D01*
X18702Y11397D01*
X18725Y11427D01*
X18775D01*
X18798Y11397D01*
X18902Y11317D01*
X19022Y11267D01*
X19152Y11250D01*
X19348D01*
X19478Y11267D01*
X19598Y11317D01*
X19702Y11397D01*
X19781Y11500D01*
X19831Y11621D01*
X19848Y11750D01*
X19831Y11879D01*
X19781Y12000D01*
X19702Y12103D01*
X19598Y12183D01*
X19501Y12223D01*
Y12277D01*
X19598Y12317D01*
X19702Y12397D01*
X19781Y12500D01*
X19831Y12621D01*
X19848Y12750D01*
X19831Y12879D01*
X19781Y13000D01*
X19702Y13103D01*
X19598Y13183D01*
X19501Y13223D01*
Y13277D01*
X19598Y13317D01*
X19702Y13397D01*
X19781Y13500D01*
X19831Y13621D01*
X19848Y13750D01*
X19831Y13879D01*
X19781Y14000D01*
X19702Y14103D01*
X19598Y14183D01*
X19501Y14223D01*
Y14277D01*
X19598Y14317D01*
X19702Y14397D01*
X19781Y14500D01*
X19831Y14621D01*
X19848Y14750D01*
X19831Y14879D01*
X19781Y15000D01*
X19702Y15103D01*
X19598Y15183D01*
X19501Y15223D01*
Y15277D01*
X19598Y15317D01*
X19702Y15397D01*
X19781Y15500D01*
X19831Y15621D01*
X19848Y15750D01*
X19831Y15879D01*
X19781Y16000D01*
X19702Y16103D01*
X19598Y16183D01*
X19501Y16223D01*
Y16277D01*
X19598Y16317D01*
X19702Y16397D01*
X19781Y16500D01*
X19831Y16621D01*
X19848Y16750D01*
X19831Y16879D01*
X19781Y17000D01*
X19702Y17103D01*
X19598Y17183D01*
X19478Y17233D01*
X19348Y17250D01*
D02*
G37*
G36*
X26250Y18688D02*
X26064Y18673D01*
X25883Y18630D01*
X25711Y18558D01*
X25552Y18461D01*
X25410Y18340D01*
X25289Y18198D01*
X25192Y18039D01*
X25120Y17867D01*
X25077Y17686D01*
X25062Y17500D01*
X25077Y17314D01*
X25120Y17133D01*
X25192Y16961D01*
X25289Y16802D01*
X25410Y16660D01*
X25552Y16539D01*
X25711Y16442D01*
X25883Y16370D01*
X26064Y16327D01*
X26250Y16312D01*
X26436Y16327D01*
X26617Y16370D01*
X26789Y16442D01*
X26948Y16539D01*
X27090Y16660D01*
X27211Y16802D01*
X27308Y16961D01*
X27380Y17133D01*
X27423Y17314D01*
X27438Y17500D01*
X27423Y17686D01*
X27380Y17867D01*
X27308Y18039D01*
X27211Y18198D01*
X27090Y18340D01*
X26948Y18461D01*
X26789Y18558D01*
X26617Y18630D01*
X26436Y18673D01*
X26250Y18688D01*
D02*
G37*
G36*
X19350Y11148D02*
Y10850D01*
X19734D01*
X19734Y10853D01*
X19694Y10949D01*
X19630Y11032D01*
X19548Y11095D01*
X19452Y11135D01*
X19350Y11148D01*
D02*
G37*
G36*
X19734Y10650D02*
X19350D01*
Y10352D01*
X19452Y10365D01*
X19548Y10405D01*
X19630Y10468D01*
X19694Y10551D01*
X19734Y10647D01*
X19734Y10650D01*
D02*
G37*
G36*
X18350Y11148D02*
Y10750D01*
Y10352D01*
X18452Y10365D01*
X18548Y10405D01*
X18630Y10468D01*
X18694Y10551D01*
X18723Y10621D01*
X18777D01*
X18806Y10551D01*
X18870Y10468D01*
X18952Y10405D01*
X19048Y10365D01*
X19150Y10352D01*
Y10750D01*
Y11148D01*
X19048Y11135D01*
X18952Y11095D01*
X18870Y11032D01*
X18806Y10949D01*
X18777Y10879D01*
X18723D01*
X18694Y10949D01*
X18630Y11032D01*
X18548Y11095D01*
X18452Y11135D01*
X18350Y11148D01*
D02*
G37*
G36*
X18750Y10192D02*
X18556Y10173D01*
X18370Y10117D01*
X18199Y10025D01*
X18048Y9902D01*
X17925Y9751D01*
X17833Y9580D01*
X17777Y9394D01*
X17758Y9200D01*
X17777Y9006D01*
X17833Y8820D01*
X17925Y8649D01*
X18048Y8498D01*
X18199Y8375D01*
X18370Y8283D01*
X18556Y8227D01*
X18750Y8208D01*
X18944Y8227D01*
X19130Y8283D01*
X19301Y8375D01*
X19452Y8498D01*
X19575Y8649D01*
X19667Y8820D01*
X19723Y9006D01*
X19742Y9200D01*
X19723Y9394D01*
X19667Y9580D01*
X19575Y9751D01*
X19452Y9902D01*
X19301Y10025D01*
X19130Y10117D01*
X18944Y10173D01*
X18750Y10192D01*
D02*
G37*
G36*
X15250Y7339D02*
X15110Y7321D01*
X14980Y7267D01*
X14869Y7181D01*
X14783Y7070D01*
X14775Y7050D01*
X14725D01*
X14717Y7070D01*
X14631Y7181D01*
X14520Y7267D01*
X14390Y7321D01*
X14250Y7339D01*
X14110Y7321D01*
X13980Y7267D01*
X13869Y7181D01*
X13783Y7070D01*
X13729Y6940D01*
X13711Y6800D01*
X13729Y6660D01*
X13783Y6530D01*
X13869Y6419D01*
X13917Y6382D01*
X13900Y6335D01*
X13715D01*
Y5265D01*
X15785D01*
Y6335D01*
X15600D01*
X15583Y6382D01*
X15631Y6419D01*
X15717Y6530D01*
X15771Y6660D01*
X15789Y6800D01*
X15771Y6940D01*
X15717Y7070D01*
X15631Y7181D01*
X15520Y7267D01*
X15390Y7321D01*
X15250Y7339D01*
D02*
G37*
G36*
X26250Y7688D02*
X26064Y7673D01*
X25883Y7630D01*
X25711Y7558D01*
X25552Y7461D01*
X25410Y7340D01*
X25289Y7198D01*
X25192Y7039D01*
X25120Y6867D01*
X25077Y6686D01*
X25062Y6500D01*
X25077Y6314D01*
X25120Y6133D01*
X25192Y5961D01*
X25289Y5802D01*
X25410Y5660D01*
X25552Y5539D01*
X25711Y5442D01*
X25883Y5370D01*
X26064Y5327D01*
X26250Y5312D01*
X26436Y5327D01*
X26617Y5370D01*
X26789Y5442D01*
X26948Y5539D01*
X27090Y5660D01*
X27211Y5802D01*
X27308Y5961D01*
X27380Y6133D01*
X27423Y6314D01*
X27438Y6500D01*
X27423Y6686D01*
X27380Y6867D01*
X27308Y7039D01*
X27211Y7198D01*
X27090Y7340D01*
X26948Y7461D01*
X26789Y7558D01*
X26617Y7630D01*
X26436Y7673D01*
X26250Y7688D01*
D02*
G37*
G36*
X15250Y5098D02*
X15121Y5081D01*
X15000Y5031D01*
X14897Y4952D01*
X14817Y4848D01*
X14777Y4751D01*
X14723D01*
X14683Y4848D01*
X14603Y4952D01*
X14500Y5031D01*
X14379Y5081D01*
X14250Y5098D01*
X14121Y5081D01*
X14000Y5031D01*
X13897Y4952D01*
X13817Y4848D01*
X13777Y4751D01*
X13723D01*
X13683Y4848D01*
X13603Y4952D01*
X13500Y5031D01*
X13379Y5081D01*
X13250Y5098D01*
X13121Y5081D01*
X13000Y5031D01*
X12897Y4952D01*
X12817Y4848D01*
X12777Y4751D01*
X12723D01*
X12683Y4848D01*
X12603Y4952D01*
X12500Y5031D01*
X12379Y5081D01*
X12250Y5098D01*
X12121Y5081D01*
X12000Y5031D01*
X11897Y4952D01*
X11817Y4848D01*
X11777Y4751D01*
X11723D01*
X11683Y4848D01*
X11603Y4952D01*
X11500Y5031D01*
X11379Y5081D01*
X11250Y5098D01*
X11121Y5081D01*
X11000Y5031D01*
X10897Y4952D01*
X10817Y4848D01*
X10767Y4728D01*
X10750Y4598D01*
Y4402D01*
X10767Y4272D01*
X10817Y4152D01*
X10897Y4048D01*
X11000Y3969D01*
X11121Y3919D01*
X11250Y3902D01*
X11379Y3919D01*
X11500Y3969D01*
X11603Y4048D01*
X11683Y4152D01*
X11723Y4249D01*
X11777D01*
X11817Y4152D01*
X11897Y4048D01*
X12000Y3969D01*
X12121Y3919D01*
X12250Y3902D01*
X12379Y3919D01*
X12500Y3969D01*
X12603Y4048D01*
X12683Y4152D01*
X12723Y4249D01*
X12777D01*
X12817Y4152D01*
X12897Y4048D01*
X13000Y3969D01*
X13121Y3919D01*
X13250Y3902D01*
X13379Y3919D01*
X13500Y3969D01*
X13603Y4048D01*
X13683Y4152D01*
X13723Y4249D01*
X13777D01*
X13817Y4152D01*
X13897Y4048D01*
X14000Y3969D01*
X14121Y3919D01*
X14250Y3902D01*
X14379Y3919D01*
X14500Y3969D01*
X14603Y4048D01*
X14683Y4152D01*
X14723Y4249D01*
X14777D01*
X14817Y4152D01*
X14897Y4048D01*
X15000Y3969D01*
X15121Y3919D01*
X15250Y3902D01*
X15379Y3919D01*
X15500Y3969D01*
X15603Y4048D01*
X15683Y4152D01*
X15733Y4272D01*
X15750Y4402D01*
Y4598D01*
X15733Y4728D01*
X15683Y4848D01*
X15603Y4952D01*
X15500Y5031D01*
X15379Y5081D01*
X15250Y5098D01*
D02*
G37*
G36*
X24250D02*
X24121Y5081D01*
X24000Y5031D01*
X23897Y4952D01*
X23817Y4848D01*
X23777Y4751D01*
X23723D01*
X23683Y4848D01*
X23603Y4952D01*
X23500Y5031D01*
X23379Y5081D01*
X23250Y5098D01*
X23121Y5081D01*
X23000Y5031D01*
X22897Y4952D01*
X22817Y4848D01*
X22777Y4751D01*
X22723D01*
X22683Y4848D01*
X22603Y4952D01*
X22500Y5031D01*
X22379Y5081D01*
X22250Y5098D01*
X22121Y5081D01*
X22000Y5031D01*
X21897Y4952D01*
X21817Y4848D01*
X21777Y4751D01*
X21723D01*
X21683Y4848D01*
X21603Y4952D01*
X21500Y5031D01*
X21379Y5081D01*
X21250Y5098D01*
X21121Y5081D01*
X21000Y5031D01*
X20897Y4952D01*
X20817Y4848D01*
X20777Y4751D01*
X20723D01*
X20683Y4848D01*
X20603Y4952D01*
X20500Y5031D01*
X20379Y5081D01*
X20250Y5098D01*
X20121Y5081D01*
X20000Y5031D01*
X19897Y4952D01*
X19817Y4848D01*
X19767Y4728D01*
X19750Y4598D01*
Y4402D01*
X19767Y4272D01*
X19817Y4152D01*
X19897Y4048D01*
X20000Y3969D01*
X20121Y3919D01*
X20250Y3902D01*
X20379Y3919D01*
X20500Y3969D01*
X20603Y4048D01*
X20683Y4152D01*
X20723Y4249D01*
X20777D01*
X20817Y4152D01*
X20897Y4048D01*
X21000Y3969D01*
X21121Y3919D01*
X21250Y3902D01*
X21379Y3919D01*
X21500Y3969D01*
X21603Y4048D01*
X21683Y4152D01*
X21723Y4249D01*
X21777D01*
X21817Y4152D01*
X21897Y4048D01*
X22000Y3969D01*
X22121Y3919D01*
X22250Y3902D01*
X22379Y3919D01*
X22500Y3969D01*
X22603Y4048D01*
X22683Y4152D01*
X22723Y4249D01*
X22777D01*
X22817Y4152D01*
X22897Y4048D01*
X23000Y3969D01*
X23121Y3919D01*
X23250Y3902D01*
X23379Y3919D01*
X23500Y3969D01*
X23603Y4048D01*
X23683Y4152D01*
X23723Y4249D01*
X23777D01*
X23817Y4152D01*
X23897Y4048D01*
X24000Y3969D01*
X24121Y3919D01*
X24250Y3902D01*
X24379Y3919D01*
X24500Y3969D01*
X24603Y4048D01*
X24683Y4152D01*
X24705Y4205D01*
X24755Y4195D01*
Y3906D01*
X25745D01*
Y5094D01*
X24755D01*
Y4805D01*
X24705Y4795D01*
X24683Y4848D01*
X24603Y4952D01*
X24500Y5031D01*
X24379Y5081D01*
X24250Y5098D01*
D02*
G37*
G36*
X17350Y4984D02*
Y4600D01*
X17648D01*
X17635Y4702D01*
X17595Y4798D01*
X17532Y4880D01*
X17449Y4944D01*
X17353Y4984D01*
X17350Y4984D01*
D02*
G37*
G36*
X16350D02*
Y4600D01*
X16648D01*
X16635Y4702D01*
X16595Y4798D01*
X16532Y4880D01*
X16449Y4944D01*
X16353Y4984D01*
X16350Y4984D01*
D02*
G37*
G36*
X17150D02*
X17147Y4984D01*
X17051Y4944D01*
X16968Y4880D01*
X16905Y4798D01*
X16865Y4702D01*
X16852Y4600D01*
X17150D01*
Y4984D01*
D02*
G37*
G36*
X16150D02*
X16147Y4984D01*
X16051Y4944D01*
X15968Y4880D01*
X15905Y4798D01*
X15865Y4702D01*
X15852Y4600D01*
X16150D01*
Y4984D01*
D02*
G37*
G36*
X17648Y4400D02*
X17350D01*
Y4016D01*
X17353Y4016D01*
X17449Y4056D01*
X17532Y4120D01*
X17595Y4202D01*
X17635Y4298D01*
X17648Y4400D01*
D02*
G37*
G36*
X16648D02*
X16350D01*
Y4016D01*
X16353Y4016D01*
X16449Y4056D01*
X16532Y4120D01*
X16595Y4202D01*
X16635Y4298D01*
X16648Y4400D01*
D02*
G37*
G36*
X17150D02*
X16852D01*
X16865Y4298D01*
X16905Y4202D01*
X16968Y4120D01*
X17051Y4056D01*
X17147Y4016D01*
X17150Y4016D01*
Y4400D01*
D02*
G37*
G36*
X16150D02*
X15852D01*
X15865Y4298D01*
X15905Y4202D01*
X15968Y4120D01*
X16051Y4056D01*
X16147Y4016D01*
X16150Y4016D01*
Y4400D01*
D02*
G37*
G36*
X14700Y9254D02*
X14583Y9238D01*
X14473Y9193D01*
X14379Y9121D01*
X14307Y9027D01*
X14262Y8917D01*
X14246Y8800D01*
X14262Y8683D01*
X14307Y8573D01*
X14379Y8479D01*
X14473Y8407D01*
X14583Y8362D01*
X14700Y8346D01*
X14817Y8362D01*
X14927Y8407D01*
X15021Y8479D01*
X15035Y8497D01*
X15575D01*
X17947Y6125D01*
Y5094D01*
X17755D01*
Y3906D01*
X18745D01*
Y5094D01*
X18553D01*
Y6250D01*
X18553Y6250D01*
X18542Y6328D01*
X18512Y6401D01*
X18464Y6464D01*
X18464Y6464D01*
X15914Y9014D01*
X15851Y9062D01*
X15778Y9092D01*
X15700Y9103D01*
X15035D01*
X15021Y9121D01*
X14927Y9193D01*
X14817Y9238D01*
X14700Y9254D01*
D02*
G37*
G36*
X3750Y5688D02*
X3564Y5673D01*
X3383Y5630D01*
X3211Y5558D01*
X3052Y5461D01*
X2910Y5340D01*
X2789Y5198D01*
X2692Y5039D01*
X2620Y4867D01*
X2577Y4686D01*
X2562Y4500D01*
X2577Y4314D01*
X2620Y4133D01*
X2692Y3961D01*
X2789Y3802D01*
X2910Y3660D01*
X3052Y3539D01*
X3211Y3442D01*
X3383Y3370D01*
X3564Y3327D01*
X3750Y3312D01*
X3936Y3327D01*
X4117Y3370D01*
X4289Y3442D01*
X4448Y3539D01*
X4590Y3660D01*
X4711Y3802D01*
X4808Y3961D01*
X4880Y4133D01*
X4923Y4314D01*
X4938Y4500D01*
X4923Y4686D01*
X4880Y4867D01*
X4808Y5039D01*
X4711Y5198D01*
X4590Y5340D01*
X4448Y5461D01*
X4289Y5558D01*
X4117Y5630D01*
X3936Y5673D01*
X3750Y5688D01*
D02*
G37*
G36*
X32600Y3027D02*
Y1850D01*
X33777D01*
X33769Y1951D01*
X33722Y2147D01*
X33645Y2333D01*
X33540Y2505D01*
X33409Y2659D01*
X33255Y2790D01*
X33083Y2895D01*
X32897Y2972D01*
X32701Y3019D01*
X32600Y3027D01*
D02*
G37*
G36*
X32400D02*
X32299Y3019D01*
X32103Y2972D01*
X31917Y2895D01*
X31745Y2790D01*
X31591Y2659D01*
X31460Y2505D01*
X31355Y2333D01*
X31278Y2147D01*
X31231Y1951D01*
X31223Y1850D01*
X32400D01*
Y3027D01*
D02*
G37*
G36*
X1850D02*
Y1850D01*
X3027D01*
X3019Y1951D01*
X2972Y2147D01*
X2895Y2333D01*
X2790Y2505D01*
X2659Y2659D01*
X2505Y2790D01*
X2333Y2895D01*
X2147Y2972D01*
X1951Y3019D01*
X1850Y3027D01*
D02*
G37*
G36*
X1650D02*
X1549Y3019D01*
X1353Y2972D01*
X1167Y2895D01*
X995Y2790D01*
X841Y2659D01*
X710Y2505D01*
X605Y2333D01*
X528Y2147D01*
X481Y1951D01*
X473Y1850D01*
X1650D01*
Y3027D01*
D02*
G37*
G36*
X33777Y1650D02*
X32600D01*
Y473D01*
X32701Y481D01*
X32897Y528D01*
X33083Y605D01*
X33255Y710D01*
X33409Y841D01*
X33540Y995D01*
X33645Y1167D01*
X33722Y1353D01*
X33769Y1549D01*
X33777Y1650D01*
D02*
G37*
G36*
X32400D02*
X31223D01*
X31231Y1549D01*
X31278Y1353D01*
X31355Y1167D01*
X31460Y995D01*
X31591Y841D01*
X31745Y710D01*
X31917Y605D01*
X32103Y528D01*
X32299Y481D01*
X32400Y473D01*
Y1650D01*
D02*
G37*
G36*
X3027D02*
X1850D01*
Y473D01*
X1951Y481D01*
X2147Y528D01*
X2333Y605D01*
X2505Y710D01*
X2659Y841D01*
X2790Y995D01*
X2895Y1167D01*
X2972Y1353D01*
X3019Y1549D01*
X3027Y1650D01*
D02*
G37*
G36*
X1650D02*
X473D01*
X481Y1549D01*
X528Y1353D01*
X605Y1167D01*
X710Y995D01*
X841Y841D01*
X995Y710D01*
X1167Y605D01*
X1353Y528D01*
X1549Y481D01*
X1650Y473D01*
Y1650D01*
D02*
G37*
%LPD*%
G36*
X19817Y23152D02*
X19897Y23048D01*
X20000Y22969D01*
X20121Y22919D01*
X20250Y22902D01*
X20379Y22919D01*
X20500Y22969D01*
X20603Y23048D01*
X20683Y23152D01*
X20723Y23249D01*
X20777D01*
X20817Y23152D01*
X20897Y23048D01*
X20961Y22999D01*
X20947Y22947D01*
X20883Y22938D01*
X20773Y22893D01*
X20679Y22821D01*
X20665Y22803D01*
X19375D01*
X19313Y22865D01*
X19329Y22912D01*
X19379Y22919D01*
X19500Y22969D01*
X19603Y23048D01*
X19683Y23152D01*
X19723Y23249D01*
X19777D01*
X19817Y23152D01*
D02*
G37*
D49*
X17601Y23946D02*
X17955Y24300D01*
X17601Y22801D02*
Y23946D01*
X16700Y21900D02*
X17601Y22801D01*
X17543Y22000D02*
X22600D01*
X15793Y20250D02*
X17543Y22000D01*
X11650Y20250D02*
X15793D01*
X17955Y24300D02*
X18450D01*
X19250Y23500D01*
X9650Y24350D02*
X10300Y25000D01*
X11050D01*
X23550Y18600D02*
Y21250D01*
X26583Y21350D02*
X28150D01*
X24700Y19467D02*
X26583Y21350D01*
X24700Y18600D02*
Y19467D01*
X18250Y23500D02*
X19250Y22500D01*
X21000D01*
X17450Y15950D02*
X18250Y16750D01*
X17450Y11200D02*
Y15950D01*
X11650Y21350D02*
X13400D01*
X18250Y4500D02*
Y6250D01*
X15700Y8800D02*
X18250Y6250D01*
X14700Y8800D02*
X15700D01*
X24598Y24228D02*
X26334D01*
X24250Y23880D02*
X24598Y24228D01*
X24250Y23500D02*
Y23880D01*
X26334Y24228D02*
X28550Y26444D01*
X28900Y27950D02*
X29550Y28600D01*
X28900Y26330D02*
Y27950D01*
X26070Y23500D02*
X28900Y26330D01*
X28550Y26444D02*
Y28600D01*
X25250Y23500D02*
X26070D01*
X21650Y24850D02*
X22050Y24450D01*
X19550Y24850D02*
X21650D01*
X19550Y26150D02*
X21000D01*
X18900Y25500D02*
X19550Y26150D01*
X24734Y25050D02*
Y27050D01*
D50*
X28150Y22350D02*
D03*
Y23350D02*
D03*
Y24350D02*
D03*
Y21350D02*
D03*
D51*
X29150Y22350D02*
D03*
Y23350D02*
D03*
Y24350D02*
D03*
Y21350D02*
D03*
X15200Y27050D02*
D03*
X26750D02*
D03*
X15250Y6800D02*
D03*
X14250D02*
D03*
D52*
X27400Y19250D02*
D03*
X28400D02*
D03*
X29400D02*
D03*
X30400D02*
D03*
X32400D02*
D03*
X31400D02*
D03*
X29550Y28600D02*
D03*
X30550D02*
D03*
D53*
X33400Y19250D02*
D03*
X28550Y28600D02*
D03*
D54*
X31900Y23784D02*
D03*
Y21816D02*
D03*
X6334Y27050D02*
D03*
X4366D02*
D03*
X13384D02*
D03*
X11416D02*
D03*
X24734D02*
D03*
X22766D02*
D03*
D55*
X19250Y10750D02*
D03*
X18250D02*
D03*
X19250Y11750D02*
D03*
X18250D02*
D03*
X19250Y12750D02*
D03*
X18250D02*
D03*
X19250Y13750D02*
D03*
X18250D02*
D03*
X19250Y14750D02*
D03*
X18250D02*
D03*
X19250Y15750D02*
D03*
X18250D02*
D03*
X19250Y16750D02*
D03*
X18250D02*
D03*
X19250Y17750D02*
D03*
D56*
X18250D02*
D03*
D57*
X15200Y26050D02*
D03*
X26750D02*
D03*
X15250Y5800D02*
D03*
X14250D02*
D03*
D58*
X18750Y19250D02*
D03*
Y9200D02*
D03*
D59*
X25250Y4500D02*
D03*
Y23500D02*
D03*
X18250Y4500D02*
D03*
X16650Y23500D02*
D03*
D60*
X24250Y4500D02*
D03*
X23250D02*
D03*
X22250D02*
D03*
X21250D02*
D03*
X20250D02*
D03*
X24250Y23500D02*
D03*
X23250D02*
D03*
X22250D02*
D03*
X21250D02*
D03*
X20250D02*
D03*
X19250D02*
D03*
X18250D02*
D03*
X17250Y4500D02*
D03*
X16250D02*
D03*
X15250D02*
D03*
X14250D02*
D03*
X13250D02*
D03*
X12250D02*
D03*
X11250D02*
D03*
X14650Y23500D02*
D03*
X7650D02*
D03*
X8650D02*
D03*
X9650D02*
D03*
X10650D02*
D03*
X11650D02*
D03*
X12650D02*
D03*
X13650D02*
D03*
X15650D02*
D03*
D61*
X1750Y27750D02*
D03*
X32594D02*
D03*
X32500Y1750D02*
D03*
X1750D02*
D03*
D62*
X6250Y23500D02*
D03*
D63*
X26250Y17500D02*
D03*
Y6500D02*
D03*
D64*
X3750Y4500D02*
D03*
D65*
X16700Y21900D02*
D03*
X11050Y25000D02*
D03*
X23550Y21250D02*
D03*
X24700Y18600D02*
D03*
X23550D02*
D03*
X22600Y22000D02*
D03*
X21000Y22500D02*
D03*
X17450Y11200D02*
D03*
X13400Y21350D02*
D03*
X11650Y20250D02*
D03*
X14700Y8800D02*
D03*
X9650Y24350D02*
D03*
X22050Y24450D02*
D03*
X19550Y24850D02*
D03*
X18900Y25500D02*
D03*
X21000Y26150D02*
D03*
X17100Y27600D02*
D03*
X24734Y25050D02*
D03*
X19350Y27450D02*
D03*
X11650Y21350D02*
D03*
X11500Y7300D02*
D03*
X7250Y1850D02*
D03*
X7200Y2750D02*
D03*
X8250Y1850D02*
D03*
Y2750D02*
D03*
X7750Y2313D02*
D03*
X4400Y6950D02*
D03*
M02*
