G04*
G04 #@! TF.GenerationSoftware,Altium Limited,Altium Designer,18.0.7 (293)*
G04*
G04 Layer_Color=8421504*
%FSLAX24Y24*%
%MOIN*%
G70*
G01*
G75*
%ADD15R,0.0400X0.0380*%
%ADD16R,0.0450X0.0600*%
%ADD17R,0.0380X0.0400*%
G04:AMPARAMS|DCode=18|XSize=45mil|YSize=60mil|CornerRadius=0mil|HoleSize=0mil|Usage=FLASHONLY|Rotation=90.000|XOffset=0mil|YOffset=0mil|HoleType=Round|Shape=Octagon|*
%AMOCTAGOND18*
4,1,8,-0.0300,-0.0113,-0.0300,0.0113,-0.0188,0.0225,0.0188,0.0225,0.0300,0.0113,0.0300,-0.0113,0.0188,-0.0225,-0.0188,-0.0225,-0.0300,-0.0113,0.0*
%
%ADD18OCTAGOND18*%

%ADD19R,0.0600X0.0450*%
%ADD20R,0.0360X0.0360*%
%ADD21R,0.0500X0.0360*%
%ADD22R,0.0630X0.1378*%
%ADD23R,0.4803X0.3839*%
D15*
X5100Y6400D02*
D03*
X4400D02*
D03*
X10150Y6388D02*
D03*
X10850D02*
D03*
X16500Y25500D02*
D03*
X17200D02*
D03*
X33100Y18250D02*
D03*
X32400D02*
D03*
D16*
X10150Y7300D02*
D03*
X10950D02*
D03*
D17*
X17250Y16750D02*
D03*
Y17450D02*
D03*
X20250Y15750D02*
D03*
Y16450D02*
D03*
X7800Y25850D02*
D03*
Y25150D02*
D03*
X9700D02*
D03*
Y25850D02*
D03*
X8550D02*
D03*
Y25150D02*
D03*
X21000Y28850D02*
D03*
Y28150D02*
D03*
X17950Y26850D02*
D03*
Y26150D02*
D03*
X18650Y28150D02*
D03*
Y28850D02*
D03*
D18*
X8000Y28150D02*
D03*
D19*
Y27350D02*
D03*
D20*
X9700Y27770D02*
D03*
Y28520D02*
D03*
X17100Y26170D02*
D03*
Y26920D02*
D03*
X19350Y28880D02*
D03*
Y28130D02*
D03*
D21*
X8900Y28150D02*
D03*
X16300Y26550D02*
D03*
X20150Y28500D02*
D03*
D22*
X6750Y6388D02*
D03*
X8750D02*
D03*
D23*
X7750Y2313D02*
D03*
M02*
