G04*
G04 #@! TF.GenerationSoftware,Altium Limited,Altium Designer,18.0.7 (293)*
G04*
G04 Layer_Color=16711935*
%FSLAX24Y24*%
%MOIN*%
G70*
G01*
G75*
%ADD33R,0.0749X0.0749*%
%ADD34C,0.0749*%
%ADD35C,0.0671*%
%ADD36R,0.0671X0.0671*%
%ADD37C,0.1261*%
%ADD38O,0.0867X0.0671*%
%ADD39R,0.0867X0.0671*%
%ADD40R,0.0749X0.0749*%
%ADD41C,0.1655*%
%ADD42R,0.0671X0.0867*%
%ADD43O,0.0671X0.0867*%
%ADD44C,0.2442*%
%ADD45C,0.2049*%
%ADD46C,0.2049*%
%ADD47O,0.2049X0.2049*%
%ADD48C,0.0580*%
D33*
X28150Y22350D02*
D03*
Y23350D02*
D03*
Y24350D02*
D03*
Y21350D02*
D03*
D34*
X29150Y22350D02*
D03*
Y23350D02*
D03*
Y24350D02*
D03*
Y21350D02*
D03*
X15200Y27050D02*
D03*
X26750D02*
D03*
X15250Y6800D02*
D03*
X14250D02*
D03*
D35*
X27400Y19250D02*
D03*
X28400D02*
D03*
X29400D02*
D03*
X30400D02*
D03*
X32400D02*
D03*
X31400D02*
D03*
X29550Y28600D02*
D03*
X30550D02*
D03*
D36*
X33400Y19250D02*
D03*
X28550Y28600D02*
D03*
D37*
X31900Y23784D02*
D03*
Y21816D02*
D03*
X6334Y27050D02*
D03*
X4366D02*
D03*
X13384D02*
D03*
X11416D02*
D03*
X24734D02*
D03*
X22766D02*
D03*
D38*
X19250Y10750D02*
D03*
X18250D02*
D03*
X19250Y11750D02*
D03*
X18250D02*
D03*
X19250Y12750D02*
D03*
X18250D02*
D03*
X19250Y13750D02*
D03*
X18250D02*
D03*
X19250Y14750D02*
D03*
X18250D02*
D03*
X19250Y15750D02*
D03*
X18250D02*
D03*
X19250Y16750D02*
D03*
X18250D02*
D03*
X19250Y17750D02*
D03*
D39*
X18250D02*
D03*
D40*
X15200Y26050D02*
D03*
X26750D02*
D03*
X15250Y5800D02*
D03*
X14250D02*
D03*
D41*
X18750Y19250D02*
D03*
Y9200D02*
D03*
D42*
X25250Y4500D02*
D03*
Y23500D02*
D03*
X18250Y4500D02*
D03*
X16650Y23500D02*
D03*
D43*
X24250Y4500D02*
D03*
X23250D02*
D03*
X22250D02*
D03*
X21250D02*
D03*
X20250D02*
D03*
X24250Y23500D02*
D03*
X23250D02*
D03*
X22250D02*
D03*
X21250D02*
D03*
X20250D02*
D03*
X19250D02*
D03*
X18250D02*
D03*
X17250Y4500D02*
D03*
X16250D02*
D03*
X15250D02*
D03*
X14250D02*
D03*
X13250D02*
D03*
X12250D02*
D03*
X11250D02*
D03*
X14650Y23500D02*
D03*
X7650D02*
D03*
X8650D02*
D03*
X9650D02*
D03*
X10650D02*
D03*
X11650D02*
D03*
X12650D02*
D03*
X13650D02*
D03*
X15650D02*
D03*
D44*
X1750Y27750D02*
D03*
X32594D02*
D03*
X32500Y1750D02*
D03*
X1750D02*
D03*
D45*
X6250Y23500D02*
D03*
D46*
X26250Y17500D02*
D03*
Y6500D02*
D03*
D47*
X3750Y4500D02*
D03*
D48*
X16700Y21900D02*
D03*
X11050Y25000D02*
D03*
X23550Y21250D02*
D03*
X24700Y18600D02*
D03*
X23550D02*
D03*
X22600Y22000D02*
D03*
X21000Y22500D02*
D03*
X17450Y11200D02*
D03*
X13400Y21350D02*
D03*
X11650Y20250D02*
D03*
X14700Y8800D02*
D03*
X9650Y24350D02*
D03*
X22050Y24450D02*
D03*
X19550Y24850D02*
D03*
X18900Y25500D02*
D03*
X21000Y26150D02*
D03*
X17100Y27600D02*
D03*
X24734Y25050D02*
D03*
X19350Y27450D02*
D03*
X11650Y21350D02*
D03*
X11500Y7300D02*
D03*
X7250Y1850D02*
D03*
X7200Y2750D02*
D03*
X8250Y1850D02*
D03*
Y2750D02*
D03*
X7750Y2313D02*
D03*
X4400Y6950D02*
D03*
M02*
