M48
;Layer_Color=9474304
;FILE_FORMAT=2:4
INCH,LZ
;TYPE=PLATED
T1F00S00C0.0280
T2F00S00C0.0354
T3F00S00C0.0394
T4F00S00C0.0512
T5F00S00C0.0787
T6F00S00C0.1260
%
T01
X00725Y00185
X0072Y00275
X00775Y002313
X00825Y00275
Y00185
X02355Y0186
X0247
X01745Y0112
X0147Y0088
X0115Y0073
X0044Y00695
X01165Y02025
Y02135
X0134
X0167Y0219
X0171Y0276
X01105Y025
X00965Y02435
X01955Y02485
X0189Y0255
X01935Y02745
X021Y02615
X02205Y02445
X0226Y022
X02355Y02125
X021Y0225
X024734Y02505
T02
X0274Y01925
X0284
X0294
X0304
X0314
X0324
X0334
X03055Y0286
X02955
X02855
T03
X02025Y0045
X02125
X02225
X02325
X02425
X02525
X01925Y01075
Y01175
Y01275
Y01375
Y01475
Y01575
Y01675
Y01775
X01825
Y01675
Y01575
Y01475
Y01375
Y01275
Y01175
Y01075
Y0045
X01725
X01625
X01525
X01425
X01325
X01225
X01125
X01425Y0058
X01525
Y0068
X01425
X01465Y0235
X01365
X01265
X01165
X01065
X00965
X00865
X00765
X01565
X01665
X01825
X0152Y02605
Y02705
X01925Y0235
X02025
X02125
X02225
X02325
X02425
X02525
X02815Y02335
Y02235
X02915
Y02335
Y02435
X02815
Y02135
X02915
X02675Y02605
Y02705
T04
X004366Y02705
X006334
X011416
X013384
X022766
X024734
X0319Y023784
Y021816
T05
X01875Y0092
Y01925
T06
X00175Y00175
X0325
X02625Y0065
Y0175
X00375Y0045
X00175Y02775
X00625Y0235
X032594Y02775
M30
